<?xml version="1.0" encoding="utf-8"?>
<!-- Generator: Adobe Illustrator 24.1.1, SVG Export Plug-In . SVG Version: 6.00 Build 0)  -->
<svg version="1.1" id="Layer_1" xmlns="http://www.w3.org/2000/svg" xmlns:xlink="http://www.w3.org/1999/xlink" x="0px" y="0px"
	 viewBox="0 0 600 600" style="enable-background:new 0 0 600 600;" xml:space="preserve">
<style type="text/css">
	.st0{fill:url(#SVGID_1_);}
</style>
<linearGradient id="SVGID_1_" gradientUnits="userSpaceOnUse" x1="178.4277" y1="51.5933" x2="511.2917" y2="728.8992">
	<stop  offset="0" style="stop-color:#0274D9"/>
	<stop  offset="1" style="stop-color:#6EDDFF"/>
</linearGradient>
<path class="st0" d="M300.28,580.02c-32.69,0-64.98-8.47-93.37-24.49c-27.41-15.47-50.77-37.73-67.55-64.37
	c-9.37-14.87-16.61-30.94-21.54-47.77c-4.64-15.84-7.19-32.23-7.6-48.79c-0.06-2.58,2.06-4.71,4.65-4.71H241.5
	c1.75,0,2.16-2.43,0.51-3.01c-30.47-10.63-56.33-26.08-77.18-46.14c-17.92-17.24-31.72-37.49-41.02-60.19
	c-9.06-22.11-13.65-46.14-13.65-71.43c0-25.62,5.04-50.53,14.98-74.04c9.58-22.65,23.28-42.97,40.7-60.4
	c17.43-17.43,37.75-31.12,60.4-40.7C249.75,24.04,274.66,19,300.28,19c55.52,0,108.11,24.17,144.29,66.32
	c28.54,33.24,44.69,75.37,45.78,119.1c0.06,2.59-2.06,4.71-4.65,4.71H359.06c-1.75,0-2.16,2.43-0.51,3.01
	c30.47,10.63,56.33,26.07,77.18,46.14c17.92,17.24,31.72,37.49,41.02,60.19c9.06,22.11,13.65,46.14,13.65,71.43
	c0,25.62-5.04,50.53-14.98,74.04c-9.58,22.65-23.28,42.97-40.7,60.4c-17.43,17.43-37.75,31.12-60.4,40.7
	C350.81,574.98,325.9,580.02,300.28,580.02z"/>
</svg>
