<?xml version="1.0" encoding="utf-8"?>
<!-- Generator: Adobe Illustrator 24.1.1, SVG Export Plug-In . SVG Version: 6.00 Build 0)  -->
<svg version="1.1" id="Layer_1" xmlns="http://www.w3.org/2000/svg" xmlns:xlink="http://www.w3.org/1999/xlink" x="0px" y="0px"
	 viewBox="0 0 500 500" style="enable-background:new 0 0 500 500;" xml:space="preserve">
<style type="text/css">
	.st0{fill:#FFFFFF;}
	.st1{fill:url(#SVGID_1_);}
	.st2{fill:#3FACE8;}
</style>
<g>
	<path class="st0" d="M93.39,397.39c-1.71,0.34-3.51-0.06-4.27-1.68c-1.51-3.22-4.23-5.81-8.25-5.81c-3.34,0-5.39,1.97-5.05,3.94
		c1.2,6.67,28.23,6.5,28.23,26.18c0,2.57-2.91,17.71-23.18,17.71c-17.96,0-21.81-11.81-22.24-18.48c-0.09-1.54,0.68-2.48,2.22-2.82
		l7.79-1.72c1.71-0.34,3.4,0.08,3.92,1.81c1.29,4.26,4.29,7.23,8.31,7.23c4.19,0,7.27-3.21,6.76-5.52
		c-1.63-7.27-27.37-5.65-27.37-25.32c-0.09-2.57,1.45-17.71,20.62-17.71c17.62,0,21.73,11.46,22.24,17.62
		c0.09,1.54-0.68,2.48-2.22,2.82L93.39,397.39z"/>
	<path class="st0" d="M123.95,376.55c1.63,0,2.57,0.94,2.57,2.57v21.39c0,1.63,0.94,2.57,2.57,2.57h8.21c1.71,0,2.57-0.94,2.57-2.57
		v-21.39c0-1.63,0.94-2.57,2.57-2.57h9.58c1.71,0,2.57,0.86,2.57,2.57v54.75c0,1.63-0.86,2.57-2.57,2.57h-9.58
		c-1.63,0-2.57-0.94-2.57-2.57v-13.52c0-1.71-0.86-2.57-2.57-2.57h-8.21c-1.63,0-2.57,0.86-2.57,2.57v13.52
		c0,1.63-0.86,2.57-2.57,2.57h-9.58c-1.63,0-2.57-0.94-2.57-2.57v-54.75c0-1.71,0.86-2.57,2.57-2.57H123.95z"/>
	<path class="st0" d="M206.76,433.52c0,1.88-0.86,2.91-2.57,2.91h-9.58c-1.63,0-2.57-0.86-2.57-2.57v-7.44
		c0-1.71-0.86-2.57-2.57-2.57h-7.36c-1.63,0-2.57,0.86-2.57,2.57v7.44c0,1.71-0.86,2.57-2.57,2.57h-9.58
		c-1.63,0-2.57-1.03-2.57-2.91v-36.27c0-10.78,1.71-22.24,20.96-22.24s20.96,11.46,20.96,22.24V433.52z M192.04,397.25
		c0-4.11-0.6-6.16-6.24-6.16c-5.65,0-6.24,2.05-6.24,6.16v9.32c0,1.63,0.94,2.57,2.57,2.57h7.36c1.71-0.09,2.57-0.94,2.57-2.65
		V397.25z"/>
	<path class="st0" d="M261.25,431.81c1.2,2.22-0.17,4.62-2.82,4.62h-9.75c-0.86,0-1.63-0.43-1.97-1.2l-8.9-17.19
		c-0.17-0.26-0.43-0.43-0.68-0.43h-3.42c-1.54,0-2.65,1.11-2.65,2.65v13.52c0,1.54-1.11,2.65-2.65,2.65h-9.58
		c-1.54,0-2.65-1.11-2.65-2.65V379.2c0-1.54,1.11-2.65,2.65-2.65h18.73c15.23,0,21.39,6.5,21.39,20.53c0,7.96-1.97,13.52-6.5,16.77
		c-0.34,0.26-0.43,0.68-0.26,1.11L261.25,431.81z M233.7,391.26c-1.54,0-2.65,1.11-2.65,2.65v6.33c0,1.54,1.11,2.65,2.65,2.65h4.36
		c4.11,0,6.16-0.51,6.16-5.82c0-5.3-2.05-5.82-6.16-5.82H233.7z"/>
	<path class="st0" d="M305.38,376.55c1.71,0,2.57,0.86,2.57,2.57v9.58c0,1.63-0.86,2.57-2.57,2.57h-19.09
		c-1.63,0-2.57,0.86-2.57,2.57v2.74c0,1.63,0.94,2.57,2.57,2.57h11.65c1.71,0,2.57,0.86,2.57,2.57v9.58c0,1.63-0.86,2.57-2.57,2.57
		h-11.65c-1.63,0-2.57,0.86-2.57,2.57v2.74c0,1.63,0.94,2.57,2.57,2.57h19.09c1.71,0,2.57,0.86,2.57,2.57v9.58
		c0,1.71-0.86,2.57-2.57,2.57h-34.32c-1.63,0-2.57-0.94-2.57-2.57v-54.75c0-1.71,0.94-2.57,2.57-2.57H305.38z"/>
	<path class="st0" d="M328.72,376.55c1.71,0,2.57,0.86,2.57,2.57v54.75c0,1.63-0.86,2.57-2.57,2.57h-9.41
		c-1.63,0-2.57-0.94-2.57-2.57v-54.75c0-1.71,0.94-2.57,2.57-2.57H328.72z"/>
	<path class="st0" d="M356.07,393.83c0-1.71-0.86-2.57-2.57-2.57h-11.98c-1.63,0-2.57-0.94-2.57-2.57v-9.58
		c0-1.71,0.94-2.57,2.57-2.57h43.8c1.71,0,2.57,0.86,2.57,2.57v9.58c0,1.63-0.86,2.57-2.57,2.57h-11.98c-1.63,0-2.57,0.86-2.57,2.57
		v40.03c0,1.63-0.86,2.57-2.57,2.57h-9.58c-1.63,0-2.57-0.94-2.57-2.57V393.83z"/>
	<path class="st0" d="M406.79,376.55c1.45,0,2.4,0.6,2.91,1.97l6.33,15.91c0.34,0.77,0.86,0.77,1.2,0l6.33-15.91
		c0.51-1.37,1.45-1.97,2.91-1.97h12.23c1.97,0,2.82,1.2,1.97,2.99l-15.31,34.22c-0.17,0.34-0.17,0.68-0.17,1.03v19.08
		c0,1.63-0.86,2.57-2.57,2.57h-11.98c-1.63,0-2.57-0.94-2.57-2.57v-19.08c0-0.34,0-0.68-0.17-1.03l-15.4-34.22
		c-0.86-1.8,0-2.99,1.97-2.99H406.79z"/>
</g>
<g>
	<g>
		<linearGradient id="SVGID_1_" gradientUnits="userSpaceOnUse" x1="188.294" y1="84.2239" x2="306.9248" y2="317.4642">
			<stop  offset="0" style="stop-color:#0274D9"/>
			<stop  offset="1" style="stop-color:#6EDDFF"/>
		</linearGradient>
		<path class="st1" d="M249.81,347.75c-16.62,0-33.03-4.3-47.46-12.45c-13.93-7.86-25.81-19.18-34.34-32.72
			c-4.76-7.56-8.45-15.73-10.95-24.28c-2.16-7.38-3.43-15-3.79-22.7c-0.11-2.45,1.87-4.5,4.32-4.5h62.34c0.89,0,1.09-1.24,0.25-1.53
			c-15.49-5.4-28.63-13.25-39.23-23.45c-9.11-8.76-16.12-19.06-20.85-30.6c-4.6-11.24-6.94-23.46-6.94-36.31
			c0-13.03,2.56-25.69,7.62-37.64c4.87-11.51,11.83-21.85,20.69-30.71c8.86-8.86,19.19-15.82,30.71-20.69
			c11.95-5.05,24.61-7.62,37.64-7.62c28.22,0,54.96,12.29,73.35,33.71c14.04,16.35,22.18,36.93,23.19,58.39
			c0.12,2.47-1.84,4.55-4.32,4.55h-62.34c-0.89,0-1.09,1.24-0.25,1.53c15.49,5.4,28.63,13.25,39.23,23.45
			c9.11,8.76,16.12,19.06,20.85,30.6c4.6,11.24,6.94,23.46,6.94,36.31c0,13.03-2.56,25.69-7.62,37.64
			c-4.87,11.51-11.83,21.85-20.69,30.71c-8.86,8.86-19.19,15.82-30.71,20.69C275.5,345.19,262.83,347.75,249.81,347.75z"/>
	</g>
	<g>
		<path class="st2" d="M307.84,334.78h5.88c0.18,0,0.32,0.14,0.32,0.32v0.57c0,0.18-0.14,0.32-0.32,0.32h-1.92
			c-0.18,0-0.32,0.14-0.32,0.32v6.2c0,0.18-0.14,0.32-0.32,0.32h-0.77c-0.18,0-0.32-0.14-0.32-0.32v-6.2c0-0.18-0.14-0.32-0.32-0.32
			h-1.91c-0.18,0-0.32-0.14-0.32-0.32v-0.57C307.52,334.92,307.66,334.78,307.84,334.78z"/>
		<path class="st2" d="M315.86,334.78h1.44c0.14,0,0.26,0.09,0.3,0.22l2.15,6.1h0.02l2.09-6.1c0.04-0.13,0.17-0.22,0.3-0.22h1.41
			c0.18,0,0.32,0.14,0.32,0.32v7.42c0,0.18-0.14,0.32-0.32,0.32h-0.7c-0.18,0-0.32-0.14-0.32-0.32v-5.9h-0.02l-2.16,6.01
			c-0.05,0.13-0.17,0.21-0.3,0.21h-0.71c-0.14,0-0.26-0.09-0.3-0.21l-2.16-6.01h-0.02v5.9c0,0.18-0.14,0.32-0.32,0.32h-0.7
			c-0.18,0-0.32-0.14-0.32-0.32v-7.42C315.54,334.92,315.68,334.78,315.86,334.78z"/>
	</g>
</g>
</svg>
